<svg width="16" height="15" viewBox="0 0 16 15" fill="none" xmlns="http://www.w3.org/2000/svg">
<path d="M3.67138 4.67998L4.36931 4.50524L3.9579 4.24278L3.91923 3.182L3.56409 1.58865L3.29333 1.73824L3.48673 4.3309L3.67138 4.67998Z" fill="#DDDDDD"/>
<path d="M8.19658 6.07752C8.76271 5.76703 10.2372 6.85668 10.3413 7.26407C10.4454 7.67147 13.2835 8.20502 13.8772 8.25668C14.4709 8.30835 14.256 9.69137 14.1093 10.1161C13.9626 10.5409 10.9423 10.8763 10.2203 10.8871C9.49834 10.8979 4.68087 10.854 3.86404 11.0205C3.04721 11.1871 2.30881 11.0606 2.25138 10.3556C2.19394 9.6507 2.3914 6.93228 2.78026 6.52012C3.16911 6.10797 7.69183 6.35434 8.19658 6.07752Z" fill="#4DA044"/>
<path d="M5.32109 5.11387C4.73505 5.19521 4.45844 5.24313 4.45844 4.9503C4.45844 4.65747 4.47719 4.13329 4.81006 4.06551C5.14293 3.99772 5.68209 4.02484 5.82742 4.13781C5.97276 4.25078 6.00558 3.8712 6.23531 3.81697C6.46504 3.76275 7.21048 3.90735 7.30893 4.06551C7.40739 4.22366 7.39332 4.36827 7.55742 4.34567C7.72151 4.32308 8.12001 4.48123 8.17627 4.72073C8.23253 4.96023 8.18096 5.05964 7.90904 5.05964C7.63712 5.05964 5.32109 5.11387 5.32109 5.11387Z" fill="#80DB79"/>
<path d="M4.50874 8.55006C4.0247 8.92994 3.98251 8.95028 4.03877 9.20785C4.09503 9.46542 4.17354 10.0434 4.19933 10.3627C4.22513 10.6821 3.88599 10.781 3.80767 10.4689C3.72934 10.1568 3.53403 9.19168 3.43829 9.09131C3.34255 8.99095 2.7694 8.85417 2.70611 9.01915C2.64282 9.18412 2.54437 9.92634 2.48107 10.2076C2.41778 10.4889 2.32987 10.898 2.20681 10.5698C2.08374 10.2415 2.09416 8.08859 2.08022 7.77426C2.04506 6.98121 1.85654 5.98636 2.22439 5.69201C2.72698 5.28983 3.50551 5.21228 4.24974 5.15821C4.99397 5.10414 6.5828 5.08306 7.30449 5.04083C8.02619 4.99859 8.1053 5.14771 8.25474 4.99859C8.40418 4.84947 9.0282 4.59005 9.22874 4.60545C9.42928 4.62085 9.77 4.63596 10.011 4.76813C10.252 4.90031 10.1465 5.23583 10.2168 5.44595C10.2871 5.65607 10.2708 6.20172 10.3124 6.3C10.3539 6.39829 10.1747 6.31356 10.0375 6.48301C9.90026 6.65247 9.76765 6.6122 9.55798 6.612C9.3483 6.6118 8.75405 6.48979 8.65911 6.4559C8.56417 6.42201 8.51143 6.72025 8.46923 6.82192C8.42704 6.9236 7.67925 7.90643 7.42608 8.17756C7.17291 8.44869 7.0182 9.00744 7.0182 9.52111C7.0182 10.0348 6.91037 10.6119 6.78847 10.294C6.66657 9.97604 6.60029 9.37052 6.62171 9.17622C6.64313 8.98191 6.42335 8.82827 6.29883 9.26207C6.1743 9.69588 6.02896 10.1975 5.92113 10.0438C5.8133 9.89019 5.81799 9.44735 5.8133 9.20785C5.80861 8.96835 5.96801 8.78319 5.64921 8.79443C5.3304 8.80568 4.83102 8.72373 4.50874 8.55006Z" fill="#EAA77A"/>
<path d="M5.25539 5.05963C4.98347 4.74331 5.23195 4.29143 5.65155 4.427C6.07116 4.56256 6.04537 4.46315 6.21181 4.30047C6.37824 4.13779 6.84966 3.9576 7.23867 4.19682C6.90568 3.82148 6.54233 3.74918 6.54233 3.74918L5.75704 4.05645L5.26242 4.01353L4.63888 4.29595C4.63888 4.29595 4.49354 4.93084 4.54745 5.04155C4.60137 5.15226 4.93659 5.27201 4.94596 5.26071C4.95534 5.24941 5.25539 5.05963 5.25539 5.05963Z" fill="#5EB755"/>
<path d="M6.4743 8.58881C6.79227 8.58877 6.92929 8.16296 6.90582 7.74723C6.88235 7.33151 6.85171 6.97365 7.2596 6.82833C7.66748 6.68301 8.17382 6.39042 8.33205 6.1368C8.39382 6.03779 8.34673 5.7305 8.41293 5.70581C8.51629 5.66728 8.73851 5.96662 8.87355 6.12498C9.09508 6.38476 9.75613 6.31698 9.97765 6.15092C9.77723 6.38815 9.75261 6.51694 9.75261 6.51694C9.75261 6.51694 9.53461 6.62539 9.52406 6.61861C9.51351 6.61183 8.70477 6.4966 8.70477 6.4966L8.34778 6.96769L7.52683 8.22843L7.06972 9.0147L6.4743 8.58881Z" fill="#CC9169"/>
<path d="M3.3683 7.76645C3.43825 8.12569 5.08657 8.49285 5.66675 8.14038C5.98204 8.35389 6.1602 8.55724 6.43681 8.59339C6.70873 8.57983 7.17288 8.55724 7.15881 8.79673C7.14475 9.03623 6.92082 10.3286 6.92082 10.3286L6.47432 8.99104C6.47432 8.99104 6.32486 8.89615 6.29879 9.06786C6.27272 9.23957 5.88828 10.3015 5.89296 10.2699C5.89765 10.2382 5.84139 8.9097 5.84139 8.9097L4.71151 8.71088L4.35988 8.60243C4.35988 8.60243 3.97036 8.89346 3.98931 9.15238C4.00826 9.41129 4.35051 10.6899 4.18641 10.6493C4.02232 10.6088 3.74694 10.4551 3.67131 10.0123C3.60447 9.62091 3.50516 9.17449 3.35999 9.06603C3.3409 9.05176 3.20674 9.26216 3.18604 9.26047C3.13315 9.25618 3.19321 9.01245 3.14312 8.97953C3.02447 8.90158 2.92896 8.77875 2.92896 8.77875L3.3683 7.76645Z" fill="#CC9169"/>
<path d="M3.17396 8.29957C2.75067 8.19851 2.58909 7.98786 2.52953 7.44698C2.661 7.48091 3.21208 7.43134 3.30993 7.36135C3.30309 7.27736 2.49978 7.10162 2.49688 7.00601C2.46602 5.99138 2.64418 5.68771 2.80827 5.44821C2.10053 5.66261 1.95897 6.65379 2.02507 7.01095C2.09116 7.3681 2.02767 8.77136 2.04173 9.15228C2.05579 9.53321 2.27644 10.9383 2.36889 10.6537C2.45436 10.3907 2.55921 9.19881 3.17396 8.29957Z" fill="#CC9169"/>
<path d="M11.0291 10.0687C11.022 9.65857 11.3021 9.22363 11.4504 9.0192C11.5987 8.81477 11.6256 8.31301 11.4504 8.07925C11.2752 7.84549 10.9619 7.6213 10.4223 7.62833C9.88276 7.63536 9.22874 7.81499 8.88415 7.69976C8.53956 7.58453 8.39302 7.50387 8.45926 7.38661C8.7435 7.40829 8.81852 7.40157 8.74702 7.20834C8.67551 7.0151 8.49013 7.01855 8.34782 6.98127C8.20551 6.94399 8.11761 6.75081 7.96641 6.74064C7.81521 6.73048 7.4882 6.91349 7.34404 6.92027C7.19987 6.92704 7.02406 7.03549 6.99944 7.17106C6.97483 7.30662 7.25613 7.33035 7.34052 7.55064C7.42491 7.77093 7.52579 8.20178 7.59314 8.33374C7.6605 8.46569 8.19145 8.76732 8.23013 9.24519C8.26881 9.72305 8.21607 10.4348 8.21607 10.4348C8.21607 10.4348 8.36023 10.2822 8.45517 10.0043C8.55011 9.72644 8.72592 9.40312 8.78921 9.79863C8.8525 10.1941 8.83879 10.5568 8.93004 10.5771C9.02128 10.5974 9.07051 10.2653 9.10567 10.0823C9.14084 9.89928 9.18655 9.55698 9.23577 9.4587C9.285 9.36041 9.73508 9.47564 9.83705 9.50615C9.93902 9.53665 10.1289 9.95351 10.1746 10.0552C10.2203 10.1569 10.3223 10.1738 10.3364 9.85183C10.3504 9.52987 10.2868 9.29525 10.4637 9.33996C10.6406 9.38468 10.8638 9.71288 10.8849 9.84845C10.906 9.98401 11.008 10.3907 11.0291 10.0687Z" fill="#EAA77A"/>
<path d="M11.5109 11.0206C11.164 10.8844 10.9327 10.3873 11.3367 10.2472C11.7407 10.1071 11.9048 10.2563 11.9845 10.0936C12.0642 9.93092 12.3902 9.64827 12.8132 9.79863C13.2362 9.94899 13.3956 9.9987 13.5738 9.93995C13.752 9.88121 14.3708 10.0258 14.4411 10.3557C14.5115 10.6856 14.3239 11.2504 14.1833 11.2866C14.0426 11.3227 11.5109 11.0206 11.5109 11.0206Z" fill="#80DB79"/>
<path d="M15.6564 4.73422C15.9237 5.25614 15.7619 6.02207 15.5369 6.21864C15.3118 6.41521 15.6002 6.78123 15.6142 7.0388C15.6283 7.29638 15.3277 8.08942 14.7713 8.20465C14.2148 8.31988 13.5818 8.2278 13.0474 8.31451C12.5129 8.40122 11.755 8.19787 11.3358 7.95386C10.9165 7.70985 10.1564 7.53361 10.0547 7.2896C9.95308 7.04558 10.3117 6.57338 10.3043 6.3503C10.297 6.12722 10.2625 5.50874 10.2414 5.41294C10.2203 5.31714 9.97041 4.43598 10.011 4.16485C10.0515 3.89372 10.7001 3.22681 11.3358 3.02479C11.9714 2.82277 11.8615 2.21396 12.4263 2.18962C12.9911 2.16528 13.7647 2.34829 13.9264 2.55164C14.0882 2.75499 14.4783 3.56159 14.663 3.60904C14.8477 3.65649 15.3048 4.02251 15.4314 4.24619C15.558 4.46987 15.6564 4.73422 15.6564 4.73422Z" fill="#80DB79"/>
<path d="M11.2576 3.26121C10.7877 3.53685 10.6144 4.05665 10.8651 4.57172C10.722 4.76596 10.4118 5.66878 11.1483 6.30866C10.8767 6.63674 11.1818 7.18352 11.7724 7.33715C11.8566 7.59021 12.3299 7.79666 12.7556 7.72577C12.9959 8.20476 12.3629 8.40761 12.3629 8.40761L11.0596 7.62836L10.0375 7.18803L10.2344 5.75558L10.236 4.71918L10.2579 3.39642L11.1614 3.0249H11.3456L11.2576 3.26121Z" fill="#5EB755"/>
<path d="M12.4579 4.71112C12.4532 4.4671 11.9703 4.50325 11.7593 4.4671C11.6562 4.70208 12.1344 4.90091 12.4579 4.71112Z" fill="#4C9644"/>
<path d="M14.2532 5.37134C14.1165 5.16592 14.5389 4.93745 14.6935 4.79443C14.9147 4.93461 14.6316 5.35596 14.2532 5.37134Z" fill="#4C9644"/>
<path d="M11.7809 6.79043C11.7526 6.60679 11.392 6.67958 11.2292 6.67219C11.1752 6.85918 11.5561 6.9641 11.7809 6.79043Z" fill="#4C9644"/>
<path d="M12.6887 5.83911C12.7334 5.65854 12.3707 5.59647 12.2224 5.5311C12.1 5.6852 12.4129 5.91946 12.6887 5.83911Z" fill="#4C9644"/>
<path d="M14.1696 7.51724C14.1248 7.33667 14.4876 7.2746 14.6358 7.20923C14.7582 7.36333 14.4453 7.59759 14.1696 7.51724Z" fill="#4C9644"/>
<path d="M2.07935 10.8328C2.15049 10.9608 2.09343 11.0114 2.10486 11.0737C2.43879 11.1509 2.72251 11.0259 2.83761 10.9915C2.84164 10.8574 2.59875 10.8906 2.52462 10.7409C2.30178 10.7106 2.21324 10.6899 2.07935 10.8328Z" fill="#663E19"/>
<path d="M13.1874 3.87692C12.8968 3.80579 12.8139 4.03306 12.8139 4.22567C12.8139 4.41829 12.9909 4.6077 13.1972 4.6077C13.4034 4.6077 13.5608 4.41829 13.5608 4.22567C13.5608 4.03306 13.422 3.78514 13.1874 3.87692ZM13.4134 4.21383C13.3791 4.22887 13.3259 4.1907 13.2947 4.12859C13.2635 4.06648 13.266 4.00393 13.3003 3.9889C13.3346 3.97386 13.3877 4.01202 13.419 4.07413C13.4502 4.13624 13.4477 4.19879 13.4134 4.21383Z" fill="#5EB755"/>
<path d="M14.1702 6.2188C13.8824 6.14768 13.8003 6.37495 13.8003 6.56756C13.8003 6.76017 13.9756 6.94959 14.1799 6.94959C14.3842 6.94959 14.5401 6.76017 14.5401 6.56756C14.5401 6.37495 14.4026 6.12703 14.1702 6.2188ZM14.3941 6.55572C14.3601 6.57075 14.3075 6.53259 14.2766 6.47048C14.2456 6.40837 14.2481 6.34582 14.2821 6.33078C14.3161 6.31575 14.3687 6.35391 14.3996 6.41602C14.4305 6.47813 14.4281 6.54068 14.3941 6.55572Z" fill="#5EB755"/>
<path d="M14.5633 6.31929C14.5985 6.40551 14.566 6.49745 14.5154 6.51664C14.4648 6.53582 14.4153 6.47498 14.3801 6.38875C14.3449 6.30253 14.3374 6.22358 14.388 6.2044C14.4386 6.18522 14.5281 6.23306 14.5633 6.31929Z" fill="white"/>
<path d="M13.5598 3.95588C13.595 4.0421 13.5625 4.13405 13.5119 4.15323C13.4613 4.17242 13.4118 4.11157 13.3766 4.02535C13.3414 3.93913 13.3339 3.86018 13.3845 3.841C13.4351 3.82181 13.5247 3.86966 13.5598 3.95588Z" fill="white"/>
<path d="M14.3315 6.13754C14.0734 6.07234 13.9998 6.28068 13.9998 6.45725C13.9998 6.63381 14.157 6.80745 14.3402 6.80745C14.5234 6.80745 14.6632 6.63381 14.6632 6.45725C14.6632 6.28068 14.5399 6.05341 14.3315 6.13754ZM14.537 6.43829C14.5065 6.45208 14.4593 6.41709 14.4316 6.36015C14.4039 6.30321 14.4061 6.24588 14.4365 6.2321C14.467 6.21831 14.5142 6.2533 14.5419 6.31023C14.5697 6.36717 14.5674 6.4245 14.537 6.43829Z" fill="#F1423E"/>
<path d="M13.3293 3.7804C13.0712 3.71519 12.9976 3.92353 12.9976 4.1001C12.9976 4.27667 13.1548 4.4503 13.338 4.4503C13.5212 4.4503 13.661 4.27667 13.661 4.1001C13.661 3.92353 13.5377 3.69626 13.3293 3.7804ZM13.5172 4.07656C13.4867 4.09034 13.4395 4.05536 13.4118 3.99842C13.3841 3.94148 13.3863 3.88415 13.4168 3.87036C13.4472 3.85658 13.4944 3.89156 13.5221 3.9485C13.5499 4.00544 13.5477 4.06277 13.5172 4.07656Z" fill="#F1423E"/>
<path d="M10.911 5.08804C10.6221 5.01691 10.5397 5.24418 10.5397 5.43679C10.5397 5.62941 10.7157 5.81882 10.9208 5.81882C11.1259 5.81882 11.2824 5.62941 11.2824 5.43679C11.2824 5.24418 11.1443 4.99626 10.911 5.08804ZM11.1358 5.42495C11.1017 5.43999 11.0488 5.40182 11.0178 5.33971C10.9867 5.2776 10.9892 5.21505 11.0234 5.20002C11.0575 5.18498 11.1103 5.22314 11.1413 5.28525C11.1724 5.34737 11.1699 5.40991 11.1358 5.42495Z" fill="#5EB755"/>
<path d="M11.3025 5.1884C11.3377 5.27462 11.3052 5.36656 11.2546 5.38575C11.204 5.40493 11.1545 5.34409 11.1193 5.25786C11.0841 5.17164 11.0766 5.09269 11.1272 5.07351C11.1778 5.05433 11.2673 5.10217 11.3025 5.1884Z" fill="white"/>
<path d="M11.0484 5.0137C10.7903 4.9485 10.7167 5.15684 10.7167 5.33341C10.7167 5.50998 10.8739 5.68361 11.0571 5.68361C11.2403 5.68361 11.3801 5.50998 11.3801 5.33341C11.3801 5.15684 11.2568 4.92957 11.0484 5.0137ZM11.2491 5.32255C11.2187 5.33633 11.1715 5.30135 11.1437 5.24441C11.116 5.18747 11.1182 5.13014 11.1487 5.11636C11.1792 5.10257 11.2264 5.13755 11.2541 5.19449C11.2818 5.25143 11.2796 5.30876 11.2491 5.32255Z" fill="#F1423E"/>
<path d="M3.11715 11.2656C3.40233 11.1536 3.59247 10.745 3.26039 10.6298C2.92831 10.5147 2.79343 10.6373 2.72791 10.5036C2.6624 10.3698 2.39439 10.1375 2.04666 10.2611C1.69894 10.3847 1.56791 10.4256 1.42146 10.3773C1.27501 10.329 0.766307 10.4478 0.708499 10.719C0.650693 10.9902 0.749886 11.3828 0.8655 11.4125C1.5173 11.1662 3.11715 11.2656 3.11715 11.2656Z" fill="#80DB79"/>
<path d="M5.46653 7.38068C5.29424 7.5269 5.27843 7.79783 5.29747 8.10624C5.314 8.35534 5.38566 8.46229 5.38566 8.46229L5.73025 8.29622L5.46653 7.38068Z" fill="#CC9169"/>
<path d="M11.8765 10.99C11.7499 10.8109 11.8302 10.4853 12.2225 10.56C12.2563 10.3635 12.4778 10.1184 12.7895 10.2517C13.1013 10.385 13.2115 10.4415 13.3662 10.3127C13.5209 10.1839 13.9157 10.0903 14.166 10.267C14.1398 10.0461 13.4131 9.89697 13.4131 9.89697L13.0896 9.98283C13.0896 9.98283 12.4965 9.58066 12.3535 9.69363C12.2105 9.8066 11.9081 10.1726 11.9081 10.1726L11.519 10.1952C11.519 10.1952 11.158 10.3217 11.1275 10.5025C11.0971 10.6832 11.2682 10.8866 11.2682 10.8866L11.8765 10.99Z" fill="#5EB755"/>
<path d="M1.3194 11.3122C0.838956 11.1263 1.24918 10.62 1.6137 10.7318C1.76004 10.7766 1.89031 10.78 1.95009 10.5953C2.00987 10.4106 2.34985 10.2208 2.56049 10.4411C2.52324 10.1412 2.17161 10.1242 2.17161 10.1242L1.64769 10.4309L1.03587 10.3716L0.617432 10.7902V11.1714L0.759841 11.3612L1.3194 11.3122Z" fill="#5EB755"/>
<path d="M13.1713 2.41401C12.1144 2.29407 11.9081 3.10745 11.9456 3.75364C11.9831 4.39983 11.4134 4.27236 11.2576 3.83677C11.3268 2.98996 11.594 2.79114 11.594 2.79114L12.677 2.18744L13.2162 2.27148L13.1713 2.41401Z" fill="#5EB755"/>
<path d="M9.57695 5.40868C9.72825 5.56123 9.74925 5.98144 9.52597 6.00347C9.30269 6.0255 9.08598 5.85583 9.0126 5.69139C8.95458 5.56289 8.95951 5.48935 9.01084 5.4502C9.10821 5.37593 9.42566 5.25614 9.57695 5.40868Z" fill="#F2DCD1"/>
<path d="M7.85792 6.97269C7.75852 6.89745 7.50685 6.90936 7.50623 7.03424C7.5056 7.15912 7.61888 7.26962 7.72101 7.30105C7.80086 7.32598 7.84442 7.31913 7.86488 7.28851C7.9037 7.23043 7.95733 7.04793 7.85792 6.97269Z" fill="#F2DCD1"/>
<path d="M7.25866 7.00047C7.26735 7.33144 7.55802 7.35856 7.73558 7.84772C7.87354 8.2278 8.46287 8.51085 8.58711 8.87461C8.67805 9.14086 8.95454 9.21127 9.10926 9.18416C9.06355 8.99776 9.10926 8.94353 9.10926 8.94353L9.12216 8.66701C9.23936 9.08926 9.45854 9.15104 9.69061 9.14105C9.84286 9.1345 10.1981 9.09943 10.1748 8.89905C10.2359 8.86375 10.311 8.95484 10.3575 9.0068C10.4274 9.08487 10.5401 9.17089 10.6599 9.23499C10.9086 9.36799 11.1247 9.26663 11.2348 9.2011C11.1997 9.61457 11.0526 9.97834 11.0526 9.97834L10.7314 9.6078L10.4646 9.37508L10.3154 9.36452L10.3704 10.1749L10.0469 9.88796L9.72577 9.39315L9.1913 9.44286L9.15849 10.0167L9.00377 10.6223L8.87015 10.5227L8.70372 9.68687L8.44351 9.81566L8.32865 10.327L8.23254 10.2585L8.2261 9.49709C8.2261 9.49709 8.08087 8.87814 7.99261 8.73686C7.90436 8.59559 7.56563 8.10642 7.56563 8.10642C7.56563 8.10642 7.23514 7.38953 7.14018 7.30401C7.04522 7.21848 7.18236 6.99821 7.18236 6.99821C7.18236 6.99821 7.2336 6.97898 7.25866 7.00047Z" fill="#CC9169"/>
<path d="M7.13102 3.10397C7.13104 3.12685 7.15145 3.14402 7.17509 3.14196C7.50674 3.1131 7.89788 3.17067 8.24143 3.24663C8.26372 3.25156 8.29094 3.25291 8.31866 3.25192C8.3596 3.25044 8.37372 3.19777 8.33792 3.17858C8.09954 3.05078 7.68953 2.94554 7.41677 2.9554C7.39903 2.95604 7.38357 2.946 7.37703 2.93008C7.30233 2.74841 7.08889 2.52665 6.80093 2.41148C6.77436 2.40085 6.74515 2.42075 6.74536 2.44848C6.74554 2.47196 6.75065 2.49558 6.7725 2.5178C6.94313 2.69136 7.13084 2.89913 7.13102 3.10397Z" fill="#844D2F"/>
<path d="M9.33742 5.53413C9.27554 5.59638 9.23793 5.72438 9.32903 5.82475C9.34839 5.76813 9.40848 5.70647 9.4575 5.67811C9.45636 5.69389 9.45461 5.70988 9.45344 5.72562C9.44817 5.79679 9.49388 5.89337 9.58437 5.91032C9.60011 5.81933 9.62472 5.71427 9.59087 5.58101C9.53479 5.36328 9.29784 5.38614 9.04468 5.49007C9.14234 5.5591 9.2483 5.52453 9.33742 5.53413Z" fill="#844D2F"/>
<path d="M7.8403 7.03178C7.8196 6.96076 7.71692 6.93011 7.62338 6.96469C7.64922 6.97818 7.67252 6.99359 7.69121 7.01106C7.66434 7.0486 7.57965 7.08787 7.59506 7.12578C7.60918 7.16055 7.69164 7.15214 7.73657 7.11854C7.74413 7.17031 7.76567 7.23265 7.80987 7.26459C7.78659 7.18317 7.8659 7.11959 7.8403 7.03178Z" fill="#844D2F"/>
<path d="M15.9554 4.88392C15.7934 4.19713 15.2844 3.63811 14.5877 3.42876C14.4537 2.48648 13.5968 1.99443 12.7813 1.99443C12.1101 1.99443 11.5119 2.3438 11.2377 2.89961C10.6235 2.93124 10.0876 3.26304 9.82704 3.7525C9.70493 3.9819 9.64288 4.23017 9.63778 4.48741C9.5943 4.45444 9.50468 4.47023 9.43942 4.48688C9.4002 4.44049 9.35496 4.348 9.38652 4.26091C9.39768 4.2301 9.36975 4.199 9.33749 4.20891C9.09999 4.28192 8.96016 4.41225 8.9652 4.59249C8.83442 4.59617 8.67385 4.64203 8.5241 4.71153C8.38261 4.3314 7.98447 4.22443 7.59856 4.20933C7.39569 3.5215 6.19225 3.39891 5.81364 3.94976C5.43946 3.61438 4.56778 3.80406 4.35323 4.34418L4.00979 4.18869V3.45664L4.06737 3.35949V3.07565L4.11096 3.04628L4.0022 2.74465L3.78344 2.11661C3.78344 2.11661 3.95432 2.18739 4.50051 2.12865C4.58256 2.31844 5.19204 2.36362 5.28136 2.16575C5.52871 2.17978 6.37799 2.11417 6.12877 1.97596C5.85388 1.81876 5.31676 1.83946 4.93272 1.82918C4.7129 1.61898 4.28658 1.65733 4.12617 1.83605C3.89561 1.86255 3.78094 1.90541 3.72447 1.94479L3.49449 1.28245C3.57045 1.26013 3.62593 1.19444 3.62593 1.11591C3.62593 1.03259 3.56375 0.963181 3.48061 0.945339V0.430566C3.48061 0.409585 3.46296 0.392578 3.44119 0.392578H3.4404C3.41863 0.392578 3.40099 0.409585 3.40099 0.430566V0.944177C3.31576 0.96056 3.25167 1.03122 3.25167 1.11591C3.25167 1.19444 3.30714 1.26013 3.38311 1.28245L2.8754 2.74465L2.76664 3.04628L2.81023 3.07565V3.35949L2.8678 3.45664V4.18869L2.33795 4.49115C2.326 4.49655 2.31837 4.50813 2.31837 4.52085V4.58278C2.31837 4.59324 2.32355 4.60308 2.3323 4.60926L2.5975 4.67559L2.72706 4.97722V5.29039C2.72706 5.29039 2.70721 5.31498 2.67262 5.35782C2.29523 5.54938 1.99724 5.83276 1.95958 6.226C1.95904 6.23163 1.95866 6.23702 1.95813 6.24263C1.68165 6.58502 1.43633 6.88878 1.43507 6.89026C1.43507 6.89026 1.36689 6.98581 1.35048 7.02728C1.33407 7.06876 1.33407 7.14878 1.33407 7.14878C1.33407 7.19131 1.36985 7.22579 1.41397 7.22579H1.5006V8.73142H1.04301V8.60266C1.04362 8.60259 1.04425 8.60258 1.04485 8.60244L1.18492 8.569C1.19872 8.5657 1.20105 8.54775 1.18852 8.54128L0.831329 8.35701C0.808646 8.3453 0.781349 8.34551 0.758858 8.35755L0.415847 8.54118C0.403524 8.54778 0.405967 8.56552 0.41965 8.56878L0.560576 8.60244C0.56119 8.60259 0.561825 8.60259 0.562457 8.60266V10.5118C0.373146 10.6969 0.283029 10.9672 0.41711 11.2969C0.291728 11.3284 0.173058 11.3606 0.0634366 11.3937C-0.0418395 11.4254 -0.00715384 11.5764 0.101992 11.561C1.98091 11.295 4.70278 11.1277 7.7309 11.1277C10.7582 11.1277 13.4795 11.2949 15.3583 11.5608C15.4673 11.5762 15.5033 11.4253 15.3982 11.3936C15.1928 11.3316 14.958 11.2725 14.6985 11.2165C15.1026 10.6023 14.8314 10.1371 14.3944 9.91383C14.7198 9.48649 14.6148 8.79981 14.41 8.47479C14.852 8.36911 15.2924 8.11486 15.5579 7.69568C15.7725 7.35118 15.8358 6.76826 15.5686 6.25312C15.9356 5.90028 16.0818 5.41953 15.9554 4.88392ZM4.83916 4.3579C5.16197 4.06795 5.48923 4.08543 5.75379 4.23514C5.81153 4.26782 5.88547 4.26154 5.93475 4.21784C6.34593 3.85311 7.16154 3.97632 7.3338 4.36584C7.35846 4.42158 7.41193 4.45812 7.47464 4.46239C7.74823 4.48104 8.05102 4.71469 8.09269 4.91992C7.61544 4.95357 6.92947 4.81884 6.24265 4.86368C5.70729 4.89863 5.20966 4.97796 4.73447 5.01672C4.62096 4.82422 4.65983 4.5215 4.83916 4.3579ZM4.283 4.51304C4.28146 4.51634 4.27992 4.51965 4.27835 4.52298H3.87259L3.73704 4.25396L3.81965 4.25431L4.283 4.51304ZM3.84457 4.07351H3.7019V3.51034C3.7019 3.49324 3.70707 3.47651 3.71679 3.4622L3.77179 3.38115L3.82874 3.46172C3.83906 3.47632 3.84457 3.49358 3.84457 3.51124V4.07351ZM3.48651 1.00906C3.50128 0.997016 3.53071 1.00717 3.55357 1.03901C3.57643 1.07084 3.58406 1.11231 3.56929 1.12436C3.55452 1.1364 3.53237 1.10834 3.50951 1.07651C3.48666 1.04467 3.47174 1.02111 3.48651 1.00906ZM3.83487 3.04723L3.61706 3.09546L3.48061 1.7219L3.83487 3.04723ZM2.26292 7.68558C2.25138 7.49797 2.21926 7.27243 2.19579 7.03855C2.42718 7.26912 2.87635 7.36652 3.28463 7.35995C3.30562 7.84745 3.08684 8.40127 2.87033 8.59279C2.62512 8.80969 2.48115 9.25585 2.40188 9.68993C2.38903 9.76027 2.37275 9.8545 2.35581 9.96019C2.32164 9.95497 2.28675 9.95229 2.25136 9.95231C2.24103 9.76692 2.23289 9.57039 2.2315 9.36444C2.22712 8.71808 2.28043 7.99468 2.26292 7.68558ZM1.04301 8.8405H1.5006V8.95504C1.33513 8.99331 1.16057 9.07138 1.04301 9.17974V8.8405ZM1.5006 9.0672V9.84745C1.41274 9.61823 1.2676 9.42792 1.07825 9.30214C1.16856 9.19164 1.33857 9.10895 1.5006 9.0672ZM1.04301 9.41191C1.29177 9.5917 1.45062 9.90132 1.47874 10.2645C1.34272 10.2291 1.19066 10.2297 1.04301 10.2618V9.41191ZM0.806788 11.2071C0.784074 11.1411 0.767793 11.0597 0.771306 10.9492C0.783075 10.5789 1.34533 10.389 1.62982 10.5546C1.67667 10.5818 1.73677 10.571 1.77135 10.5301C1.78311 10.5162 1.7958 10.5037 1.80854 10.4912L1.80838 10.4904C1.81079 10.4879 1.81359 10.4858 1.81606 10.4833C1.8186 10.481 1.82117 10.4786 1.82375 10.4763C2.02883 10.2836 2.41628 10.2475 2.58093 10.4656L2.5809 10.4664C2.61601 10.5088 2.6427 10.5595 2.65613 10.62C2.67038 10.6842 2.73647 10.7215 2.80115 10.701C2.99795 10.6387 3.20072 10.7016 3.26579 10.8525C2.31106 10.9446 1.47609 11.0652 0.806788 11.2071ZM3.73003 10.8108C3.66634 10.5233 3.38298 10.2743 2.82328 10.5206C2.87531 10.3306 2.7746 10.156 2.60684 10.0517C2.67117 9.68341 2.77787 9.28459 2.91981 9.00311C2.97553 9.0257 3.02338 9.05927 3.02031 9.12257C3.01778 9.21809 3.02736 9.3588 3.09199 9.3917C3.18909 9.44112 3.3038 9.39652 3.33794 9.30669C3.36519 9.23501 3.39024 9.20065 3.41703 9.18356C3.48254 9.41874 3.59621 9.74046 3.61015 9.99587C3.62251 10.2222 3.69939 10.514 3.83814 10.7318C3.84283 10.7469 3.84411 10.7901 3.84555 10.8014C3.80701 10.8045 3.76824 10.8076 3.73003 10.8108ZM3.8141 9.89015C3.80538 9.73276 3.79269 9.57025 3.7767 9.42288C3.79458 9.44759 3.82688 9.46002 3.88641 9.44827C3.90881 9.44384 3.92699 9.43579 3.94226 9.42541C3.96136 9.73513 4.02122 10.1443 4.13638 10.4689C3.93864 10.5043 3.82926 10.1641 3.8141 9.89015ZM5.86158 10.6868C5.43133 10.7019 5.01331 10.7223 4.6096 10.7472C4.58138 10.6757 4.49417 10.6658 4.41637 10.5881C4.41604 10.5881 4.41569 10.588 4.41536 10.588C4.23159 10.2953 4.12916 9.46174 4.11384 9.04682C4.25557 8.97404 4.41838 8.84773 4.53039 8.69941C4.95952 8.86951 5.40493 8.95434 5.73643 8.95824C5.738 9.55436 5.63623 10.1163 5.85829 10.5253C5.8764 10.6013 5.86773 10.648 5.86158 10.6868ZM6.66361 10.6649C6.57471 10.6667 6.48622 10.6686 6.39817 10.6708C6.3977 10.6019 6.32895 10.6021 6.29673 10.5294C6.28843 10.1159 6.33147 9.61886 6.43715 9.15086C6.43962 9.13991 6.44198 9.1294 6.44441 9.11859C6.51188 9.26479 6.52316 9.48547 6.55021 9.77752C6.59193 10.2233 6.67341 10.5605 6.67341 10.5605C6.68874 10.6082 6.67863 10.6397 6.66361 10.6649ZM6.8628 10.1804C6.82512 9.83927 6.78051 9.51262 6.77243 9.30224C6.76332 9.06516 6.65773 8.88176 6.51546 8.79146C6.57874 8.4785 6.61152 8.21366 6.57941 7.91679C6.57598 7.88507 6.52875 7.88315 6.52207 7.91439C6.48346 8.0949 6.40415 8.26592 6.37913 8.47812C6.35017 8.72066 6.23496 9.05427 6.15585 9.35759C6.12176 9.48828 6.07629 9.70875 6.0382 9.94839C6.04212 9.58381 6.0688 9.28835 6.07146 9.02207C6.07575 8.59137 5.71118 8.02571 5.49723 7.4002C5.48685 7.36986 5.44056 7.37789 5.4407 7.40983C5.44392 8.14094 5.64536 8.19769 5.71321 8.59796C5.00573 8.62247 4.40489 8.47868 3.92756 8.33534C3.90268 8.32787 3.88645 8.36023 3.90773 8.37473C4.02208 8.45267 4.14425 8.52238 4.27035 8.58446C4.20296 8.67808 4.09531 8.75952 3.9506 8.82494L3.95291 8.82417C3.81908 8.90169 3.86906 8.97579 3.87502 9.05251C3.88296 9.15192 3.78099 9.19033 3.7295 9.01983C3.70464 8.93159 3.66437 8.92118 3.62428 8.9309C3.55706 8.94719 3.48876 8.95355 3.42168 8.95198L3.42176 8.9521C3.31747 8.94585 3.30307 9.06098 3.26835 9.15083C3.24325 9.22132 3.15108 9.21603 3.17545 9.10426C3.19981 8.99249 3.20912 8.92293 3.13324 8.89534C3.1333 8.89529 3.13338 8.89527 3.13344 8.89523C3.09149 8.87926 3.05242 8.86019 3.01635 8.8392C3.03725 8.80934 3.0587 8.78191 3.08077 8.75771C3.47602 8.33091 3.50479 7.7641 3.35263 7.35792C3.59021 7.34726 3.80839 7.30122 3.95364 7.22548C4.19463 7.25295 4.42329 7.12298 4.45116 6.95575C4.14021 7.1056 3.98142 6.93658 3.88886 7.09701C3.09375 7.46724 2.06133 6.98659 2.22639 6.12943C2.24333 5.98156 2.37237 5.74306 2.59151 5.61258C2.63955 5.5865 2.69217 5.56405 2.75091 5.54649C3.32766 5.37411 4.45474 5.44459 5.22631 5.29276C6.07021 5.12669 7.09695 5.14477 7.60329 5.18995C7.83084 5.21026 7.98677 5.21923 8.09002 5.22299C8.12698 5.28314 8.21156 5.32032 8.34059 5.30695C8.61486 5.27451 8.7643 5.13363 8.81353 5.04043C8.73148 5.07828 8.46893 5.10229 8.45252 5.01939C8.4365 4.93845 8.74676 4.78832 9.03203 4.79182C9.12869 4.90336 9.29198 4.81178 9.35551 4.75519C9.37016 4.74214 9.38288 4.72508 9.39408 4.70614C9.44314 4.80592 9.47611 4.92554 9.44176 5.05286C9.63632 5.03705 9.61054 4.81901 9.73478 4.79529C9.84144 4.87098 9.89389 4.97661 9.90004 5.15877C9.97011 5.09422 10.0033 5.04275 10.0295 4.993C10.051 5.05324 10.0835 5.12097 10.082 5.20419C10.0799 5.32149 10.1878 5.62822 10.1788 5.71425C10.1674 5.82361 10.1441 5.92277 10.1805 6.0205C10.1413 6.02415 10.0983 6.02962 10.0504 6.03739C9.84054 6.0714 9.6627 6.17465 9.62226 6.40681C9.61519 6.44737 9.613 6.48451 9.6148 6.51869C9.34661 6.54755 8.81902 6.37274 8.64123 6.07806C8.57155 6.22664 8.58835 6.32157 8.637 6.38696C8.53235 6.48005 8.41504 6.65027 8.29255 6.84804C8.21995 6.76774 8.09194 6.71704 7.98205 6.6796C7.89904 6.65849 7.84683 6.65508 7.72107 6.69969C7.5953 6.7443 7.33299 6.90954 7.18467 6.87667C6.97691 6.76692 6.88517 6.81624 6.79365 6.89289C6.70427 6.97387 6.68424 7.19189 6.76305 7.25474C6.83902 7.31532 6.89712 7.34115 6.94809 7.35977L6.94798 7.36007C6.9508 7.36084 6.95324 7.36183 6.95601 7.36262C6.98771 7.37393 7.01684 7.38305 7.04593 7.39662C7.05765 7.40236 7.06899 7.40833 7.07963 7.4147C7.08027 7.41509 7.0809 7.41543 7.08154 7.41583C7.24274 7.51352 7.28311 7.68236 7.32074 7.85081C7.33926 7.93371 7.36655 8.01205 7.39919 8.08682C7.22505 8.25612 7.06666 8.43888 7.00919 8.73872C6.94941 9.05512 6.88436 9.64326 6.8628 10.1804ZM8.55585 6.96129C8.64733 6.81583 8.75408 6.6766 8.89658 6.55324C9.0531 6.6243 9.34493 6.72996 9.5731 6.70212C9.58366 6.76419 9.595 6.82739 9.60802 6.8854C9.69406 7.20525 9.83772 7.42333 10.0668 7.59464C9.66758 7.6163 9.29049 7.65396 9.03599 7.65055C8.74163 7.64662 8.622 7.58293 8.55772 7.47119C8.68369 7.51376 8.80453 7.50721 8.84955 7.35806C8.91246 7.14962 8.75687 7.03971 8.55585 6.96129ZM10.0123 6.22506C10.0803 6.23685 10.0835 6.36389 10.0197 6.4168C9.97381 6.45483 9.9175 6.45926 9.89865 6.39844C9.86794 6.2993 9.92753 6.21038 10.0123 6.22506ZM7.05325 6.93127C7.03558 6.97609 6.92957 7.01194 6.90075 6.97698C6.87193 6.94202 6.87972 6.89679 6.94366 6.87534C7.00759 6.8539 7.07092 6.88646 7.05325 6.93127ZM8.14052 9.62527C8.11031 10.1058 8.11193 10.4168 8.10338 10.6557C7.97979 10.6549 7.85577 10.6543 7.7309 10.6543C7.53684 10.6543 7.34443 10.6554 7.15355 10.6574C7.12055 10.6356 7.083 10.6091 7.05914 10.5593C7.06266 10.2157 7.24192 9.56623 7.28346 9.07969C7.31077 8.75969 7.39469 8.55467 7.54629 8.35252C7.60636 8.4416 7.672 8.52377 7.73733 8.5995C7.9108 8.80059 8.18272 8.95423 8.14052 9.62527ZM8.76305 10.6642C8.65878 10.6623 8.55399 10.6606 8.44862 10.6592C8.47057 10.3671 8.51865 10.0479 8.57809 9.92464C8.61003 9.85333 8.65346 9.80109 8.69545 9.76175C8.77164 9.94904 8.77438 10.1299 8.77696 10.3268C8.77646 10.447 8.77033 10.5633 8.76305 10.6642ZM9.77422 10.6932C9.55137 10.6846 9.32507 10.6774 9.09588 10.6716C9.17833 10.4138 9.2599 10.0279 9.26572 9.82861C9.26812 9.74667 9.25935 9.637 9.2448 9.51425C9.3611 9.52354 9.55361 9.52483 9.75533 9.51373C9.83562 9.74495 10.0408 9.88287 10.0698 10.0636C10.0945 10.2176 9.90881 10.3836 9.77422 10.6932ZM9.97151 9.49687C10.0539 9.4884 10.1336 9.47753 10.206 9.46397C10.2599 9.66311 10.2826 9.92402 10.274 10.0047C10.1586 9.92126 10.0165 9.64525 9.97151 9.49687ZM10.8011 10.0094C10.7977 10.1296 10.6062 10.457 10.4941 10.7265C10.3826 10.7205 10.2703 10.7148 10.1568 10.7095C10.2226 10.603 10.3111 10.5059 10.3628 10.4522C10.4542 10.3573 10.4519 10.0523 10.4636 9.78343C10.4704 9.62623 10.4405 9.4926 10.4144 9.40838C10.4162 9.40766 10.4178 9.40689 10.4196 9.40616C10.4589 9.44416 10.4998 9.47773 10.5409 9.50552C10.7449 9.64334 10.8058 9.84669 10.8011 10.0094ZM10.6588 9.39852C10.6588 9.39852 10.6589 9.39831 10.659 9.39828C10.4866 9.27707 10.3192 9.09614 10.2052 8.91282C10.1881 8.88548 10.1437 8.90158 10.1501 8.93285C10.1742 9.04929 10.225 9.15706 10.2894 9.25109C10.0742 9.36363 9.53259 9.354 9.21873 9.3183C9.18646 9.09386 9.14557 8.8533 9.12217 8.66754C9.11803 8.63467 9.06877 8.63354 9.06272 8.66613C8.97939 9.11563 9.0207 9.31977 9.05475 9.54054C9.09342 9.79133 8.99732 10.3076 8.95864 10.4771C8.95864 10.209 8.91492 9.89774 8.82637 9.66391C8.82643 9.66386 8.82657 9.66377 8.82663 9.66373C8.82472 9.65854 8.82242 9.65361 8.82045 9.64847C8.81664 9.63878 8.8128 9.62917 8.80883 9.61978C8.73499 9.44111 8.62478 9.2883 8.56985 9.17949C8.5571 9.15424 8.51778 9.15958 8.51348 9.18735C8.49742 9.29096 8.50737 9.40779 8.52861 9.46151C8.4579 9.57261 8.34882 9.90386 8.3067 10.0878C8.3119 9.85472 8.3636 9.5419 8.36712 9.18695C8.37064 8.832 8.21768 8.70231 8.02077 8.49218C7.82386 8.28206 7.59537 8.12948 7.54959 7.81775C7.5124 7.56065 7.30996 7.32371 7.16843 7.24774C7.20781 7.16676 7.23553 7.09945 7.24128 7.04886C7.40537 7.05451 7.52511 6.97396 7.61518 6.91782C7.71231 6.85727 7.82681 6.8178 7.93164 6.83196C8.03647 6.84611 8.20753 6.93245 8.23233 7.06311C8.39541 7.02523 8.68761 7.12866 8.66131 7.25629C8.635 7.38393 8.42785 7.3486 8.2514 7.30092C8.27759 7.31973 8.31112 7.34301 8.3489 7.36681C8.35168 7.53939 8.46686 7.67139 8.70644 7.772C8.98389 7.88696 9.46887 7.86068 10.0408 7.79742C10.6128 7.73416 11.0473 7.82001 11.1926 7.97817C11.213 8.00037 11.2299 8.01951 11.245 8.03674C11.3327 8.25401 11.3178 8.47001 11.0222 8.48997C10.8386 8.50237 10.7218 8.54644 10.6702 8.61952L10.6698 8.61941C10.5323 8.68809 10.4981 8.90578 10.626 9.03238C10.6459 9.05207 10.6802 9.03905 10.6803 9.01156C10.6804 8.96844 10.684 8.9308 10.6939 8.89079C10.711 8.82237 10.7822 8.75347 10.7728 8.67523V8.67523C10.8633 8.63235 10.9825 8.62524 11.0837 8.63231C11.1798 8.63902 11.3432 8.58642 11.4475 8.48944C11.4813 8.70547 11.4282 8.91783 11.2776 9.09924C11.006 9.42658 11.051 9.60888 10.9799 9.86081C10.9682 9.70943 10.8293 9.51004 10.6588 9.39852ZM11.175 9.67949C11.2067 9.44565 11.4458 9.26263 11.5548 9.11351C11.618 9.02698 11.6914 8.80344 11.6922 8.57148C11.8541 8.64001 12.0265 8.67772 12.1959 8.67775C12.1959 8.67775 12.1959 8.67775 12.1959 8.67775C12.3039 8.67775 12.4085 8.66279 12.5094 8.63393C12.5098 8.64638 12.5099 8.65827 12.5105 8.67124C12.5272 9.00935 12.5303 9.26978 12.536 9.42312C12.124 9.43672 11.7693 9.75274 11.8683 10.1142C11.5754 9.98526 11.345 9.96826 11.1709 10.0181C11.166 9.90948 11.16 9.79036 11.175 9.67949ZM14.2421 11.1259C13.4383 10.9797 12.4454 10.8609 11.3252 10.7791C11.2171 10.4175 11.5626 10.2282 11.8952 10.3337C11.9739 10.3586 12.0543 10.3132 12.0716 10.2351C12.1706 9.78923 12.8215 9.74001 13.148 10.1258C13.1901 10.1755 13.2632 10.1886 13.3202 10.1555C13.6663 9.95404 14.3503 10.1851 14.3646 10.6356C14.3726 10.8868 14.2972 11.0157 14.2421 11.1259ZM13.423 8.45407C13.5759 8.50532 13.7527 8.53223 13.9391 8.53223C13.9617 8.53223 13.9847 8.53109 14.0076 8.53026C14.2945 8.89607 14.2811 9.53569 14.0593 9.79674C13.7983 9.74194 13.525 9.76253 13.3182 9.87397C13.2738 9.80255 13.2251 9.74138 13.1735 9.6883C13.1436 9.00376 13.2752 8.77657 13.423 8.45407ZM15.1558 6.25038L15.208 6.34574C15.4524 6.7914 15.4726 7.18311 15.2683 7.50994C14.9922 7.95153 14.3858 8.15265 13.9391 8.15265C13.8084 8.15265 13.6873 8.1353 13.5823 8.10391C13.6925 7.9042 13.8232 7.77929 13.9772 7.69979C14.0425 7.66612 14.0058 7.56884 13.9331 7.58183C13.8229 7.60153 13.7109 7.656 13.5888 7.74601C13.4137 7.87123 13.27 8.04425 13.2243 8.22049C13.2208 7.61384 13.0445 6.95984 13.0415 6.75188C13.0422 6.52688 13.122 6.25273 13.225 6.05184C13.2592 5.98505 13.1662 5.92603 13.1159 5.9826C13.0109 6.10067 12.9259 6.24574 12.8786 6.33841C12.7684 6.54401 12.7426 6.79368 12.7391 6.93263C12.6231 6.48866 12.3652 6.36689 12.1519 6.30226C12.0013 6.25665 11.8675 6.21665 11.7487 6.17344C11.6745 6.14649 11.6241 6.24465 11.6905 6.28634C11.8035 6.35732 11.9339 6.41856 12.0921 6.51238C12.4121 6.70217 12.4226 6.99025 12.4051 7.22409C12.2974 7.19099 12.1227 7.11476 12.0066 7.0104C11.9526 6.96178 11.8696 7.01854 11.9007 7.0832C11.9447 7.1746 12.0325 7.25287 12.1536 7.32068C12.3418 7.42913 12.4719 7.44777 12.5422 7.77821C12.557 7.84799 12.5629 7.90883 12.5637 7.96581C12.1649 8.15122 11.4998 7.96946 11.3588 7.69386C11.3587 7.69275 11.3584 7.69153 11.3583 7.69043C11.3476 7.61517 11.2863 7.55614 11.2084 7.54478L11.2069 7.54457C10.5043 7.44213 10.3224 7.14002 10.3296 6.73048C10.3501 6.72462 10.3704 6.71914 10.3906 6.71437C10.5484 6.67694 10.7104 6.63637 10.7351 6.50283C10.7817 6.25216 10.6346 6.23679 10.5856 6.1493C10.5317 6.053 10.4772 6.02928 10.4009 6.02201C10.3499 5.93492 10.3492 5.8147 10.3651 5.75949C10.3955 5.65367 10.3659 5.57478 10.3378 5.52733C10.3097 5.47989 10.3009 5.36296 10.3009 5.23587C10.3009 5.10878 10.3079 5.02914 10.496 4.89696L10.4979 4.89239C10.681 4.79439 10.7132 4.57685 10.6471 4.45395C10.6332 4.42815 10.5958 4.4284 10.5784 4.45213C10.5565 4.48204 10.5219 4.51238 10.4729 4.53959C10.2969 4.00549 10.5451 3.32295 11.1466 3.20185C11.1369 3.25995 11.1316 3.31646 11.1294 3.37107C11.1277 3.97903 11.4933 4.0404 11.5566 3.59267C11.6163 3.06059 11.8941 2.38277 12.7813 2.37401C13.3903 2.37401 14.163 2.68482 14.3018 3.41165L14.3017 3.41174C14.3378 3.62707 14.3208 3.84929 14.2656 4.03791C14.2477 4.09938 14.3285 4.14231 14.3711 4.09342C14.4545 3.99775 14.5137 3.8762 14.5496 3.75649C15.2068 3.94126 15.5121 4.51042 15.6242 4.98552C15.7308 5.43741 15.5976 5.84693 15.2589 6.10908L15.1716 6.17659C15.1487 6.19435 15.142 6.2253 15.1558 6.25038Z" fill="#844D2F"/>
<path d="M2.7773 13.5876C2.8861 13.5853 2.97559 13.6725 2.96961 13.7772C2.96541 13.8509 2.95876 13.923 2.94972 13.9934C2.93275 14.1244 2.90017 14.2403 2.85199 14.3415C2.80381 14.4424 2.73811 14.5233 2.65456 14.584C2.57118 14.6445 2.46295 14.6748 2.33004 14.6748C2.17611 14.6748 2.05147 14.6402 1.95643 14.572C1.86107 14.5039 1.78674 14.4043 1.73342 14.2736C1.67993 14.143 1.64333 13.9813 1.62392 13.788C1.60435 13.5947 1.59449 13.3726 1.59448 13.1212C1.59448 12.8749 1.60626 12.6556 1.62962 12.4633C1.65315 12.2707 1.69353 12.1073 1.75075 11.9724C1.80813 11.8375 1.88426 11.7323 1.97933 11.6573C2.07439 11.5824 2.19346 11.5395 2.33689 11.5299C2.44884 11.5225 2.54396 11.5364 2.62222 11.5715C2.70032 11.6065 2.7635 11.6667 2.8119 11.7516C2.86013 11.8368 2.89535 11.9467 2.91752 12.0813C2.93202 12.1694 2.94184 12.2692 2.94692 12.3805C2.95152 12.4814 2.86986 12.5663 2.7652 12.5704C2.7646 12.5705 2.764 12.5705 2.7634 12.5705C2.75673 12.5708 2.74991 12.5711 2.74295 12.5714C2.63799 12.5761 2.54865 12.4968 2.54551 12.3956C2.54423 12.3543 2.54252 12.3148 2.5404 12.2773C2.53512 12.1867 2.52459 12.1095 2.50899 12.0461C2.49134 11.9745 2.46618 11.9222 2.43351 11.8896C2.40825 11.8644 2.37311 11.8539 2.33684 11.8561C2.28474 11.8592 2.23853 11.8839 2.19818 11.9295C2.1578 11.9751 2.12331 12.048 2.0947 12.1474C2.0661 12.2468 2.0445 12.3751 2.03037 12.5321C2.01593 12.6887 2.00881 12.8801 2.00885 13.106C2.00889 13.3319 2.01673 13.5234 2.0325 13.6803C2.04813 13.8374 2.07027 13.9648 2.0991 14.0622C2.12777 14.1599 2.16232 14.2308 2.20275 14.2749C2.24319 14.3194 2.28935 14.3415 2.34156 14.3411C2.38851 14.3408 2.42639 14.3193 2.45502 14.2768C2.48365 14.2344 2.50574 14.1781 2.52149 14.1087C2.53705 14.0393 2.54817 13.9595 2.55466 13.8695C2.55712 13.8346 2.55912 13.7994 2.56065 13.7637C2.56477 13.6675 2.64464 13.5904 2.74453 13.5883C2.75545 13.588 2.76638 13.5878 2.7773 13.5876ZM2.53289 13.0614C2.53286 12.9971 2.55496 12.9425 2.59918 12.8973C2.64355 12.8521 2.69827 12.8281 2.76351 12.8258C2.82858 12.8235 2.88332 12.8436 2.92774 12.886C2.97199 12.9285 2.99414 12.9822 2.99417 13.047C2.9942 13.1118 2.97211 13.1668 2.92789 13.2119C2.88352 13.257 2.82878 13.2805 2.76369 13.2822C2.69846 13.284 2.64371 13.2634 2.5993 13.2211C2.55506 13.1788 2.53291 13.1256 2.53289 13.0614Z" fill="#844D2F"/>
<path d="M4.38378 11.4652C4.51675 11.4604 4.61384 11.5839 4.57418 11.7063C4.50532 11.9189 4.44658 12.1218 4.39793 12.3151C4.33027 12.5843 4.26975 12.8466 4.21657 13.102C4.16323 13.3578 4.11052 13.6115 4.05845 13.8633C4.0156 14.0708 3.96486 14.2838 3.90616 14.5018C3.88411 14.5837 3.80651 14.6403 3.71873 14.6396C3.7117 14.6395 3.70459 14.6395 3.69743 14.6394C3.56712 14.6387 3.47583 14.5157 3.51631 14.3963C3.54048 14.3251 3.56351 14.2546 3.58541 14.1848C3.63228 14.0355 3.67646 13.8871 3.71808 13.7398C3.6868 13.5884 3.6501 13.415 3.6083 13.22C3.5665 13.0248 3.52135 12.8252 3.47302 12.6205C3.4247 12.4161 3.37447 12.2184 3.32218 12.0267C3.29561 11.9294 3.26874 11.8385 3.24153 11.7539C3.20434 11.6383 3.28851 11.5194 3.41389 11.5127C3.42063 11.5124 3.42737 11.512 3.43411 11.5117C3.53198 11.5065 3.61801 11.5729 3.63407 11.6661C3.63729 11.6849 3.64085 11.7049 3.64475 11.7262C3.66422 11.8339 3.68784 11.9565 3.71528 12.0941C3.74273 12.232 3.77337 12.378 3.80735 12.5331C3.84134 12.6879 3.87532 12.8333 3.9093 12.9691C3.96138 12.726 4.01281 12.4828 4.06345 12.2389C4.10521 12.0383 4.14999 11.8295 4.19786 11.612C4.21613 11.529 4.29077 11.4686 4.37874 11.4654C4.38041 11.4653 4.38209 11.4653 4.38378 11.4652Z" fill="#844D2F"/>
<path d="M5.29819 12.1787C5.22258 12.6244 5.15385 13.0485 5.0913 13.4511C5.03767 13.7974 4.98401 14.1414 4.93039 14.4837C4.91547 14.5789 4.83055 14.649 4.73064 14.6489C4.72875 14.6489 4.72687 14.6489 4.72498 14.6489C4.59758 14.6487 4.50234 14.5356 4.52774 14.4153C4.55198 14.3005 4.57434 14.1936 4.59478 14.0949C4.62861 13.9312 4.66051 13.7761 4.69037 13.6293C4.72024 13.4829 4.7496 13.3379 4.77819 13.1952C4.80677 13.0524 4.83742 12.8961 4.86998 12.726C4.90237 12.5563 4.93889 12.3667 4.97924 12.1577C5.01164 11.9898 5.04773 11.8003 5.08766 11.5889C5.10485 11.4979 5.18672 11.431 5.28265 11.429C5.28977 11.4288 5.29681 11.4287 5.30375 11.4285C5.30754 11.4284 5.31135 11.4283 5.31519 11.4282C5.41542 11.4252 5.50312 11.4925 5.52087 11.5876C5.56579 11.8284 5.61156 12.0701 5.65829 12.3131C5.71572 12.6124 5.77204 12.9024 5.82691 13.1824C5.88177 13.4625 5.9352 13.7282 5.9875 13.9793C6.0199 14.1348 6.05076 14.2799 6.08013 14.4145C6.10649 14.5352 6.01092 14.6484 5.88286 14.6486C5.87645 14.6486 5.87008 14.6486 5.86375 14.6486C5.76389 14.6489 5.67897 14.5785 5.66392 14.4834C5.54205 13.713 5.42014 12.9446 5.29819 12.1787Z" fill="#844D2F"/>
<path d="M6.40356 13.3519C6.40356 13.3503 6.40356 13.3488 6.40356 13.3473C6.40356 13.2442 6.49 13.1604 6.59693 13.1598C6.62444 13.1597 6.65195 13.1595 6.67946 13.1594C6.70031 13.0567 6.72114 12.9549 6.74198 12.8538C6.7628 12.7527 6.78622 12.6368 6.8123 12.5057C6.83839 12.3749 6.86848 12.221 6.90236 12.0441C6.92873 11.906 6.96008 11.7441 6.99616 11.5587C7.01406 11.4668 7.09724 11.3997 7.19431 11.3994C7.20608 11.3993 7.21793 11.3993 7.2297 11.3992C7.32798 11.3986 7.41221 11.4663 7.42941 11.5595C7.47464 11.8048 7.52074 12.0505 7.56781 12.2966C7.62515 12.5977 7.68119 12.8885 7.73597 13.1689C7.79073 13.4499 7.84422 13.7154 7.89641 13.9664C7.92878 14.122 7.95961 14.2672 7.98891 14.402C8.01518 14.5229 7.91949 14.6361 7.79135 14.6363C7.78572 14.6363 7.78011 14.6363 7.77455 14.6363C7.67371 14.6365 7.58814 14.5649 7.57386 14.4687C7.56768 14.427 7.56174 14.3871 7.55604 14.3487C7.54299 14.2611 7.52992 14.1741 7.51688 14.0878C7.50382 14.0015 7.49076 13.9146 7.47771 13.8266C7.46467 13.739 7.4503 13.6425 7.43471 13.5375C7.2834 13.5376 7.13209 13.5378 6.98078 13.5382C6.9652 13.6459 6.95007 13.7463 6.93592 13.8395C6.92145 13.9327 6.90778 14.0222 6.89489 14.1084C6.8817 14.195 6.86882 14.2812 6.85578 14.3675C6.85064 14.4014 6.84531 14.4359 6.83978 14.4711C6.82482 14.5662 6.73971 14.6365 6.63991 14.6364C6.63801 14.6363 6.63611 14.6363 6.6342 14.6363C6.50612 14.6362 6.41065 14.522 6.43701 14.4012C6.44035 14.3859 6.44367 14.3707 6.44698 14.3557C6.46638 14.267 6.48466 14.1786 6.50167 14.0911C6.51853 14.0037 6.53618 13.9149 6.5543 13.8244C6.57258 13.7343 6.59216 13.6392 6.61299 13.5395C6.60836 13.5395 6.60373 13.5395 6.5991 13.5395C6.4912 13.54 6.40353 13.4559 6.40356 13.3519ZM7.37212 13.1571C7.34855 13.0033 7.32369 12.8476 7.29772 12.6896C7.27159 12.5319 7.24148 12.3548 7.2077 12.1577C7.17635 12.355 7.14626 12.5329 7.11761 12.6921C7.08896 12.8515 7.06288 13.0067 7.03948 13.1579C7.15036 13.1575 7.26124 13.1573 7.37212 13.1571Z" fill="#844D2F"/>
<path d="M8.61679 11.7583C8.61673 12.0074 8.61668 12.2565 8.61662 12.5055C8.88285 12.6748 9.0901 12.878 9.23873 13.1144C9.38738 13.3508 9.46161 13.6239 9.46148 13.935C9.46139 14.1519 9.40003 14.3225 9.27742 14.4471C9.15463 14.5718 8.98 14.6344 8.75318 14.6344C8.6618 14.6344 8.57124 14.6337 8.4813 14.6324C8.45192 14.632 8.42248 14.6319 8.39298 14.6321C8.29196 14.6331 8.21053 14.5519 8.21168 14.4545C8.21557 14.1247 8.21816 13.8288 8.21929 13.5666C8.22061 13.2566 8.22128 12.9748 8.22132 12.7211C8.22136 12.4354 8.22076 12.1852 8.21952 11.9709C8.21871 11.8305 8.217 11.6996 8.21449 11.5782C8.21245 11.4792 8.29599 11.3983 8.39871 11.4C8.41813 11.4003 8.43801 11.4006 8.45838 11.4008C8.55093 11.4018 8.64634 11.403 8.74414 11.4044C8.84209 11.4058 8.93926 11.4067 9.03579 11.4071C9.06466 11.4072 9.09284 11.4074 9.12031 11.4077C9.22007 11.4086 9.30003 11.487 9.29995 11.5832C9.29995 11.5846 9.29995 11.586 9.29995 11.5875C9.29992 11.6849 9.2172 11.7634 9.1161 11.7623C8.94967 11.7605 8.78323 11.7592 8.61679 11.7583ZM8.61269 12.9661C8.61264 13.16 8.61323 13.3658 8.61446 13.5841C8.61567 13.802 8.61626 14.0312 8.61621 14.2708C8.66057 14.2709 8.70493 14.271 8.74929 14.271C8.85882 14.2712 8.93906 14.2458 8.98985 14.1947C9.0408 14.144 9.0663 14.0581 9.06634 13.9371C9.06641 13.7354 9.02857 13.5574 8.953 13.4023C8.87741 13.2472 8.76392 13.1015 8.61269 12.9661Z" fill="#844D2F"/>
<path d="M9.59833 13.3624C9.59833 13.3609 9.59833 13.3593 9.59833 13.3578C9.59842 13.2543 9.68621 13.1706 9.79366 13.172C9.82055 13.1724 9.84744 13.1728 9.87433 13.1731C9.89525 13.0717 9.91614 12.9714 9.93704 12.8717C9.95793 12.7721 9.98141 12.6579 10.0076 12.5289C10.0337 12.4002 10.0639 12.249 10.0979 12.0752C10.1232 11.9458 10.1529 11.7953 10.1871 11.624C10.2077 11.5206 10.3034 11.447 10.4126 11.4509C10.4141 11.4509 10.4156 11.451 10.4172 11.4511C10.5213 11.4548 10.6085 11.5278 10.6268 11.6266C10.6713 11.8659 10.7167 12.1052 10.7629 12.3445C10.8201 12.6412 10.8759 12.9272 10.9306 13.2024C10.9852 13.4781 11.0385 13.7382 11.0906 13.9836C11.1232 14.137 11.1542 14.2799 11.1836 14.4124C11.2094 14.5282 11.1178 14.6371 10.9948 14.6372C10.9831 14.6372 10.9715 14.6372 10.9601 14.6372C10.8639 14.6374 10.7824 14.5692 10.7685 14.4775C10.7621 14.435 10.756 14.3943 10.7501 14.3552C10.7371 14.2693 10.7241 14.184 10.711 14.0993C10.698 14.0146 10.685 13.9292 10.672 13.8428C10.659 13.7567 10.6448 13.6618 10.6292 13.5585C10.4779 13.5564 10.3266 13.5545 10.1754 13.5528C10.1597 13.6589 10.1445 13.7579 10.1303 13.8497C10.1158 13.9416 10.102 14.03 10.0891 14.1151C10.0759 14.2006 10.0629 14.2857 10.0498 14.3709C10.0444 14.4063 10.0387 14.4424 10.0328 14.4791C10.0183 14.5699 9.937 14.637 9.84173 14.6367C9.83381 14.6367 9.82579 14.6367 9.81774 14.6367C9.69506 14.6365 9.60371 14.5272 9.62915 14.4115C9.63314 14.3934 9.63711 14.3754 9.64105 14.3577C9.66051 14.2696 9.67885 14.1819 9.69593 14.0951C9.71284 14.0084 9.73055 13.9204 9.74874 13.8308C9.76709 13.7415 9.78671 13.6474 9.80761 13.5489C9.80729 13.5485 9.80722 13.5484 9.80691 13.5481C9.69301 13.5566 9.5982 13.4701 9.59833 13.3624ZM10.5668 13.184C10.5434 13.0325 10.5186 12.8789 10.4927 12.7229C10.4667 12.5672 10.4367 12.3921 10.4031 12.197C10.3716 12.3903 10.3414 12.5648 10.3127 12.7209C10.2839 12.8773 10.2578 13.0297 10.2343 13.1784C10.3451 13.1802 10.456 13.182 10.5668 13.184Z" fill="#844D2F"/>
<path d="M11.6318 14.6397C11.5199 14.6395 11.4295 14.551 11.4304 14.4431C11.4323 14.1852 11.4339 13.9496 11.4352 13.7365C11.4366 13.4704 11.4374 13.2172 11.4375 12.9771C11.4376 12.7373 11.4371 12.4985 11.436 12.2612C11.435 12.0851 11.4338 11.8976 11.4323 11.6988C11.4314 11.5869 11.5284 11.4968 11.6443 11.5025C11.6498 11.5028 11.6553 11.5031 11.6608 11.5033C11.7697 11.5085 11.8547 11.5961 11.8525 11.7012C11.8513 11.7614 11.8501 11.8257 11.8488 11.8941C11.8461 12.0412 11.8447 12.1986 11.8446 12.3669C11.8445 12.5348 11.8445 12.7082 11.8444 12.8866C11.8443 13.065 11.8448 13.2397 11.846 13.4102C11.8472 13.581 11.8484 13.7432 11.8497 13.8969C11.8509 14.0508 11.8528 14.1876 11.8554 14.3075C12.0041 14.3135 12.1553 14.3144 12.309 14.3104C12.3091 14.1991 12.3091 14.0713 12.3092 13.9265C12.3093 13.7817 12.3094 13.6281 12.3094 13.4653C12.3095 13.3026 12.3096 13.1344 12.3096 12.9612C12.3097 12.7884 12.3098 12.6171 12.3099 12.4477C12.3099 12.2786 12.3094 12.1164 12.3082 11.9611C12.3076 11.8871 12.3068 11.8161 12.3059 11.7479C12.3044 11.6347 12.403 11.5445 12.5203 11.5515C12.5251 11.5518 12.53 11.5521 12.5348 11.5524C12.6429 11.5587 12.7265 11.6459 12.7243 11.7502C12.7231 11.8092 12.7218 11.8721 12.7206 11.9389C12.7179 12.0836 12.7166 12.2385 12.7165 12.404C12.7165 12.5693 12.7164 12.7398 12.7163 12.9154C12.7163 13.091 12.7168 13.2628 12.7182 13.4306C12.7194 13.5986 12.7207 13.7583 12.7219 13.9094C12.7231 14.0609 12.7251 14.1954 12.7276 14.3134C12.8763 14.3195 13.0275 14.3207 13.1814 14.3169C13.1814 14.2076 13.1814 14.0821 13.1815 13.9399C13.1815 13.7977 13.1815 13.6468 13.1815 13.4869C13.1816 13.3271 13.1816 13.1619 13.1816 12.9918C13.1817 12.822 13.1817 12.6538 13.1817 12.4874C13.1818 12.3214 13.1811 12.1621 13.1799 12.0096C13.1793 11.9391 13.1785 11.8713 13.1776 11.8063C13.1761 11.6922 13.2762 11.6015 13.3943 11.61C13.396 11.6101 13.3977 11.6102 13.3993 11.6103C13.5067 11.6179 13.5891 11.7049 13.5864 11.8086C13.582 11.9814 13.5793 12.1623 13.5783 12.3512C13.5771 12.6102 13.5764 12.8723 13.5764 13.1375C13.5764 13.403 13.5777 13.6637 13.5804 13.9204C13.5822 14.1034 13.5847 14.2787 13.5878 14.4462C13.5899 14.5552 13.4986 14.6442 13.3855 14.6439C12.8009 14.6425 12.2164 14.6411 11.6318 14.6397Z" fill="#844D2F"/>
</svg>
